<?xml version="1.0" encoding="utf-8"?><svg xmlns="http://www.w3.org/2000/svg" xmlns:xlink="http://www.w3.org/1999/xlink"><symbol viewBox="0 0 1920 100" preserveAspectRatio="none" id="bg-shape"><path d="M0 9.999C186.775 18.392 373.531 29.53 559.341 50.27 659.651 61.467 960 99.999 960 99.999s300.348-38.532 400.658-49.729c185.81-20.74 372.566-31.878 559.341-40.271V0H0v9.999z"/></symbol><symbol viewBox="0 0 17 16" id="small-logo"><path class="bs0" d="M5.3 2.9c1.1 0 2.1.4 2.8.9q.8.6 1.4 1.5.3.4.5.8.3.4.5.9h.1c0-.8-.2-1.5-.6-2.1q-.3-.7-.9-1.2c.8-.5 1.6-.8 2.7-.8 4.6 0 6 5.9 3.1 9.3-2.5 3.1-6.4 3.9-6.4 3.9s-3.8-.8-6.3-3.9C-.7 8.8.7 2.9 5.3 2.9zM1.5.9C.8 1 .3.6.3.6s.3.9 1.9 1.5c1.7.7 2.3.1 3.9.3h.1q-.2-.1-.3-.2-.7-.4-1.5-.6-.2-.1-.4-.1H2.8q.3-.3.8-.4.1 0 .2-.1h.7c.6 0 1.2.2 1.8.6l.3.2q.2.1.2.2.1 0 .1.1C6.6 1.2 5.8 0 4.1.1 3 .1 2.2.9 1.5.9z"/></symbol></svg>