<svg xmlns="http://www.w3.org/2000/svg" viewBox="0 0 1920 101" preserveAspectRatio="none" aria-hidden="true"><path d="M0 11c45.75 2.25 91.51 4.4 137.25 6.78 30.61 1.59 61.21 3.25 91.79 5.32 49.85 3.38 99.69 6.92 149.51 10.79 34.87 2.71 69.72 5.66 104.51 9.25 46.88 4.83 93.69 10.24 140.51 15.65 36.39 4.21 72.75 8.72 109.11 13.22 28.09 3.48 56.15 7.2 84.23 10.74 35.51 4.48 71.04 8.82 106.55 13.34 11.21 1.43 22.37 3.25 33.55 4.9H.01C0 71 0 41 0 11zm964 90c10.66-1.62 21.29-3.43 31.98-4.82 33.02-4.3 66.06-8.48 99.1-12.63 44.11-5.54 88.22-11.11 132.35-16.49 49.26-6 98.52-12.07 147.84-17.6 34.75-3.9 69.58-7.14 104.41-10.34 33.84-3.11 67.69-6.03 101.57-8.62 32.05-2.45 64.14-4.42 96.23-6.5 27.6-1.79 55.19-3.57 82.8-5.15 30.27-1.73 60.55-3.3 90.83-4.79 22.96-1.14 45.93-2.05 68.9-3.06v90H964z"/></svg>